<?xml version="1.0" encoding="iso-8859-1"?>
<!-- Uploaded to: SVG Repo, www.svgrepo.com, Generator: SVG Repo Mixer Tools -->
<svg height="800px" width="800px" version="1.1" id="Layer_1" xmlns="http://www.w3.org/2000/svg" xmlns:xlink="http://www.w3.org/1999/xlink" 
	 viewBox="0 0 512 512" xml:space="preserve">
<polygon style="fill:#FBBA00;" points="225.698,15 225.698,307.609 512,402.305 512,109.696 "/>
<polygon style="fill:#F28E00;" points="0,402.305 286.302,497 512,402.305 225.698,198.565 "/>
<polygon style="fill:#FBDB80;" points="225.698,198.565 225.698,307.609 512,402.305 512,293.261 "/>
<g>
	<polygon style="fill:#FBBA00;" points="366.671,354.237 286.302,387.957 286.302,497 512,402.305 512,293.261 	"/>
	<polygon style="fill:#FBBA00;" points="80.369,259.542 0,293.261 0,402.305 225.698,307.609 225.698,198.565 	"/>
</g>
<g>
	<polygon style="fill:#FBDB80;" points="512,109.696 225.698,15 145.329,48.72 225.698,75.303 431.632,143.417 	"/>
	<polygon style="fill:#FBDB80;" points="0,293.261 0,402.305 286.302,497 286.302,387.957 	"/>
</g>
</svg>